<svg xmlns="http://www.w3.org/2000/svg" viewBox="0 0 64 64">
  <circle cx="32" cy="32" r="32" fill="#ECF3EF"/>
  <path d="M17 41.72V22.68H22.16V41.72ZM29.42 41.72V30.48Q29.42 28.83 28.37 27.9Q27.33 26.97 25.79 26.97Q24.77 26.97 23.94 27.39Q23.11 27.8 22.64 28.59Q22.16 29.38 22.16 30.48L20.15 29.5Q20.15 27.29 21.12 25.67Q22.09 24.06 23.74 23.17Q25.4 22.28 27.49 22.28Q29.46 22.28 31.07 23.17Q32.69 24.06 33.64 25.65Q34.58 27.25 34.58 29.5V41.72ZM41.84 41.72V30.48Q41.84 28.83 40.79 27.9Q39.75 26.97 38.21 26.97Q37.22 26.97 36.38 27.39Q35.53 27.8 35.06 28.59Q34.58 29.38 34.58 30.48L31.63 29.77Q31.78 27.49 32.85 25.81Q33.91 24.14 35.65 23.21Q37.38 22.28 39.51 22.28Q41.64 22.28 43.33 23.17Q45.03 24.06 46.01 25.71Q47 27.37 47 29.65V41.72Z" fill="#14715F"/>
</svg>
